# xmcd
#
# Track frame offsets: 
#        150
#        19007
#        40345
#        66722
#        93447
#        110142
#        133840
#        149665
#        172847
#        193532
#
# Disc length: 2999 seconds
#
# Revision: 24
# Processed by: cddbd v1.5.2PL0 Copyright (c) Steve Scherf et al.
# Submitted via: ExactAudioCopy v0.99pb5
#
DISCID=970bb50a
DTITLE=Radiohead - Kid A
DYEAR=2000
DGENRE=Alternative
TTITLE0=Everything In Its Right Place
TTITLE1=Kid A
TTITLE2=The National Anthem
TTITLE3=How To Disappear Completely
TTITLE4=Treefingers
TTITLE5=Optimistic
TTITLE6=In Limbo
TTITLE7=Idioteque
TTITLE8=Morning Bell
TTITLE9=Motion Picture Soundtrack
EXTD=YEAR: 2000 ID3G:   0
EXTT0=
EXTT1=
EXTT2=
EXTT3=
EXTT4=
EXTT5=
EXTT6=
EXTT7=
EXTT8=
EXTT9=
PLAYORDER=
